# xmcd
#
# Track frame offsets: 
#        150
#        11886
#        22747
#        35011
#        50907
#        69847
#        86997
#        100479
#        114806
#        128090
#        150916
#
# Disc length: 2284 seconds
#
# Revision: 0
# Processed by: cddbd v1.5.2PL0 Copyright (c) Steve Scherf et al.
# Submitted via: ExactAudioCopyFreeDBPlugin 1.0
#
DISCID=8508ea0b
DTITLE=Christine Anu - Rewind
DYEAR=2012
DGENRE=Funk
TTITLE0=Respect
TTITLE1=The House That Jack Built
TTITLE2=Since You've Been Gone
TTITLE3=You're All I Need To Get by
TTITLE4=Today I Sing The Blues
TTITLE5=Angel
TTITLE6=(You Make Me Feel Like) A Natural Woman
TTITLE7=Chain Of Fools
TTITLE8=Baby I Love You
TTITLE9=A Change Is Gonna Come
TTITLE10=Rock Steady
EXTD=Release year: 2012\nRelease country: AU\nRelease label: ANU\nRele
EXTD=ase catalog#: ANU001\nBarcode: 9324690075560
EXTT0=
EXTT1=
EXTT2=
EXTT3=
EXTT4=
EXTT5=
EXTT6=
EXTT7=
EXTT8=
EXTT9=
EXTT10=
PLAYORDER=
